<svg xmlns="http://www.w3.org/2000/svg" viewBox="0 0 50 48" height="100" width="100"><defs><path id="b" d="M216.469-42.386h200.827v29.771H216.469z"/></defs><text y="103.028" x="143.094" style="line-height:1.25;-inkscape-font-specification:'JetBrains Mono Bold';font-variant-ligatures:normal;font-variant-caps:normal;font-variant-numeric:normal;font-variant-east-asian:normal" font-weight="700" font-size="10.583" font-family="JetBrains Mono" letter-spacing="-.529" stroke-width=".265"/><g transform="matrix(.73682 0 0 .73682 -58.622 -18.675)"><path fill="#2f72a0" d="M104.952 78.707c-.565-.314-5.27-3.64-6.526-4.624l21.941-.193 1.424-4.293c4.545-13.806 5.033-15.01 5.062-15.068 2.94 2.107 4.203 3.008 4.287 3.091-2.812 8.994-6.437 19.414-6.774 20.775-1.194.198-19.037.522-19.414.312z" stroke="null" stroke-width=".06"/><path fill="#5fb9ce" d="M124.367 78.397c.255-1.022 2.833-9.156 2.917-9.595.042-.168.356-1.11.691-2.095l2.828-9.215c.033.014-15.801-11.846-15.758-11.92 1.398-1.04 2.47-1.803 3.851-2.835 16.347 11.856 17.918 12.912 17.918 13.016 0 .189-1.99 6.43-3.666 11.478-1.298 4.493-1.77 6.084-1.801 6.105-3.456 2.493-6.896 5.166-6.98 5.061z" stroke="null" stroke-width=".06"/><path fill="#e07674" d="M92.573 55.263c2.283-7.414 2.513-7.668 2.536-7.726l6.668 21.27c18.85 0 18.386.088 20.28.107-1.047 3.253-1.57 5.068-1.6 5.016-.03-.05-22.01.157-21.993.17.017.013-4.005-12.186-6.007-18.278z" stroke="null" stroke-width=".06"/><path fill="#ee9464" d="M100.945 66.25c-.44-1.423-1.403-4.356-2.115-6.555-2.786-8.503-3.754-12.16-3.758-12.187-.005-.026.91-.63 2.313-1.636.796-.565 2.345-1.675 3.435-2.492 2.91-2.137 5.089-3.707 7.372-5.362l2.01-1.466 4.273.042 4.252.063-17.74 12.88.46 1.508c.755 2.597 2.095 6.786 3.561 11.268.775 2.367 1.571 4.796 1.739 5.404l.335 1.089h-5.32z" stroke="null" stroke-width=".06"/><path fill="#f7c866" d="M117.898 43.61c-5.145 3.784-10.197 7.428-15.342 11.212l-1.664-5.222c5.905-4.293 11.87-8.647 17.775-12.94l15.547 10.95c1.999 6.56 2.235 6.86 2.65 8.134l-9.07-6.353-8.932-6.493z" stroke="null" stroke-width=".06"/></g></svg>